<svg xmlns="http://www.w3.org/2000/svg" width="301" height="37" fill="none" viewBox="0 0 301 37"><path fill="#F7F7F7" d="M196.24 16.78H207.76V20.44H196.24V16.78ZM246.107 21.91C246.107 24.13 245.317 25.7 243.737 26.62C242.177 27.54 240.117 28 237.557 28H230.657V7.21H237.257C239.637 7.21 241.557 7.63 243.017 8.47C244.477 9.29 245.207 10.64 245.207 12.52C245.207 13.7 244.847 14.67 244.127 15.43C243.407 16.19 242.497 16.71 241.397 16.99C242.717 17.21 243.827 17.71 244.727 18.49C245.647 19.25 246.107 20.39 246.107 21.91ZM240.257 13.03C240.257 12.21 239.997 11.62 239.477 11.26C238.977 10.88 238.177 10.69 237.077 10.69H235.577V15.52H237.257C238.297 15.52 239.057 15.33 239.537 14.95C240.017 14.55 240.257 13.91 240.257 13.03ZM241.037 21.7C241.037 20.66 240.737 19.92 240.137 19.48C239.557 19.04 238.707 18.82 237.587 18.82H235.577V24.4H237.377C238.517 24.4 239.407 24.21 240.047 23.83C240.707 23.45 241.037 22.74 241.037 21.7ZM257.375 22.99C257.375 24.17 258.055 24.76 259.415 24.76C260.155 24.76 260.915 24.6 261.695 24.28L262.805 27.46C261.525 28.16 259.995 28.51 258.215 28.51C256.355 28.51 254.955 27.98 254.015 26.92C253.095 25.84 252.635 24.33 252.635 22.39V8.98H247.955V5.74H257.375V22.99ZM273.953 11.53C276.373 11.53 278.263 12.3 279.623 13.84C281.003 15.36 281.693 17.41 281.693 19.99C281.693 22.67 281.013 24.76 279.653 26.26C278.293 27.76 276.393 28.51 273.953 28.51C271.513 28.51 269.613 27.77 268.253 26.29C266.893 24.79 266.213 22.7 266.213 20.02C266.213 18.32 266.513 16.84 267.113 15.58C267.733 14.3 268.623 13.31 269.783 12.61C270.963 11.89 272.353 11.53 273.953 11.53ZM273.953 15.04C272.973 15.04 272.253 15.44 271.793 16.24C271.333 17.02 271.103 18.28 271.103 20.02C271.103 21.78 271.333 23.06 271.793 23.86C272.253 24.64 272.973 25.03 273.953 25.03C274.933 25.03 275.653 24.63 276.113 23.83C276.573 23.03 276.803 21.75 276.803 19.99C276.803 18.27 276.573 17.02 276.113 16.24C275.653 15.44 274.933 15.04 273.953 15.04ZM300.281 13C299.241 13.42 297.711 13.63 295.691 13.63C296.731 14.09 297.501 14.64 298.001 15.28C298.521 15.92 298.781 16.74 298.781 17.74C298.781 18.76 298.501 19.68 297.941 20.5C297.381 21.3 296.591 21.93 295.571 22.39C294.551 22.85 293.371 23.08 292.031 23.08C291.371 23.08 290.751 23.02 290.171 22.9C290.011 22.98 289.881 23.11 289.781 23.29C289.701 23.45 289.661 23.62 289.661 23.8C289.661 24.1 289.771 24.34 289.991 24.52C290.231 24.68 290.701 24.76 291.401 24.76H294.041C295.241 24.76 296.301 24.96 297.221 25.36C298.141 25.76 298.851 26.31 299.351 27.01C299.851 27.71 300.101 28.5 300.101 29.38C300.101 31.04 299.371 32.33 297.911 33.25C296.471 34.19 294.361 34.66 291.581 34.66C289.601 34.66 288.041 34.45 286.901 34.03C285.781 33.63 284.991 33.06 284.531 32.32C284.091 31.58 283.871 30.65 283.871 29.53H288.071C288.071 30.03 288.161 30.42 288.341 30.7C288.541 30.98 288.901 31.19 289.421 31.33C289.941 31.47 290.701 31.54 291.701 31.54C293.101 31.54 294.061 31.38 294.581 31.06C295.121 30.74 295.391 30.29 295.391 29.71C295.391 29.23 295.191 28.84 294.791 28.54C294.411 28.26 293.841 28.12 293.081 28.12H290.561C288.921 28.12 287.691 27.83 286.871 27.25C286.051 26.65 285.641 25.89 285.641 24.97C285.641 24.37 285.791 23.81 286.091 23.29C286.411 22.75 286.851 22.3 287.411 21.94C286.411 21.4 285.691 20.77 285.251 20.05C284.811 19.31 284.591 18.42 284.591 17.38C284.591 16.2 284.891 15.17 285.491 14.29C286.091 13.41 286.931 12.74 288.011 12.28C289.091 11.8 290.321 11.56 291.701 11.56C293.301 11.6 294.661 11.45 295.781 11.11C296.901 10.75 298.041 10.22 299.201 9.52L300.281 13ZM291.821 14.65C291.061 14.65 290.461 14.89 290.021 15.37C289.601 15.85 289.391 16.5 289.391 17.32C289.391 18.18 289.611 18.85 290.051 19.33C290.491 19.81 291.081 20.05 291.821 20.05C292.601 20.05 293.201 19.82 293.621 19.36C294.041 18.88 294.251 18.18 294.251 17.26C294.251 15.52 293.441 14.65 291.821 14.65Z"/><path fill="#F7F7F7" fill-rule="evenodd" d="M154 34.8824L165 3.11772L166.864 3.84155L155.864 35.6063L154 34.8824Z" clip-rule="evenodd"/><path fill="#F7F7F7" fill-rule="evenodd" d="M174.375 21.9077L176.435 19.7267L176.435 19.7267L174.375 17.5457L165.121 7.74747L163.062 9.92852L172.315 19.7267L163.062 29.5249L165.121 31.7059L174.375 21.9077Z" clip-rule="evenodd"/><path fill="#F7F7F7" d="M34.8153 29H31.6615L29.3538 16.8461L26.8461 29H23.7846L20.6615 12.8461H22.7692L25.1384 27.8308L27.9846 14.9077H30.7384L33.4461 27.8308L35.8 12.8461H37.8L34.8153 29Z"/><path fill="#F7F7F7" d="M42.8339 6.12307V15.2308C43.4596 14.3487 44.2544 13.682 45.2185 13.2308C46.1826 12.7795 47.1467 12.5538 48.1108 12.5538C49.7314 12.5538 50.9006 12.9743 51.6185 13.8154C52.3365 14.6564 52.6955 15.8205 52.6955 17.3077V29H50.7878V16.9692C50.7878 16.0051 50.5262 15.2923 50.0031 14.8308C49.4801 14.3692 48.6852 14.1385 47.6185 14.1385C46.9211 14.1385 46.2596 14.2923 45.6339 14.6C45.0083 14.9077 44.4544 15.2872 43.9724 15.7385C43.4903 16.1795 43.1108 16.6154 42.8339 17.0461V29H40.9262V6.35384L42.8339 6.12307Z"/><path fill="#F7F7F7" d="M69.2756 12.8461L63.5063 29.1385C63.1576 30.1333 62.7268 31.0769 62.214 31.9692C61.7012 32.8615 61.0192 33.6154 60.1679 34.2308C59.3166 34.8564 58.2089 35.2513 56.8448 35.4154L56.5063 33.7538C57.6345 33.5487 58.5166 33.241 59.1525 32.8308C59.7986 32.4205 60.3012 31.8974 60.6602 31.2615C61.0294 30.6256 61.3576 29.8718 61.6448 29H61.014L55.214 12.8461H57.2756L62.3679 27.3692L67.2909 12.8461H69.2756Z"/><path fill="#F7F7F7" d="M85.1403 12.8461L77.2787 20.1538L86.0941 29H83.3403L74.5864 20.1846L82.2941 12.8461H85.1403ZM74.2634 6.04614V29H72.3557V6.30768L74.2634 6.04614Z"/><path fill="#F7F7F7" d="M87.1435 21.4923V19.7077H99.1742V21.4923H87.1435Z"/><path fill="#F7F7F7" d="M112.27 6.04614L114.177 6.30768V29H112.516L112.27 26.7692C111.624 27.6923 110.901 28.3487 110.101 28.7385C109.311 29.1179 108.495 29.3077 107.654 29.3077C106.229 29.3077 105.054 28.959 104.131 28.2615C103.218 27.5538 102.542 26.5743 102.101 25.3231C101.659 24.0615 101.439 22.6102 101.439 20.9692C101.439 19.359 101.685 17.9231 102.177 16.6615C102.68 15.3897 103.398 14.3897 104.331 13.6615C105.275 12.9231 106.413 12.5538 107.747 12.5538C108.731 12.5538 109.593 12.7282 110.331 13.0769C111.07 13.4154 111.716 13.9179 112.27 14.5846V6.04614ZM108.224 14.2C106.726 14.2 105.577 14.7692 104.777 15.9077C103.988 17.0359 103.593 18.7179 103.593 20.9538C103.593 22.3692 103.752 23.5795 104.07 24.5846C104.398 25.5795 104.88 26.3384 105.516 26.8615C106.152 27.3846 106.947 27.6461 107.901 27.6461C108.926 27.6461 109.793 27.359 110.501 26.7846C111.218 26.2102 111.808 25.5795 112.27 24.8923V16.4923C111.798 15.7641 111.208 15.2 110.501 14.8C109.803 14.4 109.044 14.2 108.224 14.2Z"/><path fill="#F7F7F7" d="M119.896 21.6923C119.927 23.0461 120.168 24.159 120.619 25.0308C121.081 25.8923 121.686 26.5282 122.434 26.9384C123.183 27.3487 123.999 27.5538 124.881 27.5538C125.732 27.5538 126.486 27.4308 127.142 27.1846C127.809 26.9385 128.506 26.5641 129.234 26.0615L130.234 27.4923C129.486 28.0667 128.64 28.5128 127.696 28.8308C126.763 29.1487 125.85 29.3077 124.958 29.3077C123.47 29.3077 122.193 28.959 121.127 28.2615C120.07 27.5641 119.26 26.5897 118.696 25.3384C118.132 24.0769 117.85 22.6102 117.85 20.9384C117.85 19.2974 118.137 17.8461 118.711 16.5846C119.286 15.3231 120.081 14.3385 121.096 13.6308C122.122 12.9128 123.311 12.5538 124.665 12.5538C125.978 12.5538 127.101 12.8718 128.034 13.5077C128.968 14.1436 129.681 15.0461 130.173 16.2154C130.675 17.3743 130.927 18.759 130.927 20.3692C130.927 20.6461 130.922 20.8974 130.911 21.1231C130.901 21.3385 130.891 21.5282 130.881 21.6923H119.896ZM124.711 14.3385C123.409 14.3385 122.311 14.8 121.419 15.7231C120.537 16.6461 120.04 18.0615 119.927 19.9692H129.111C129.07 18.0718 128.645 16.6615 127.834 15.7385C127.024 14.8051 125.983 14.3385 124.711 14.3385Z"/><path fill="#F7F7F7" d="M147.207 12.8461L141.191 29H138.991L133.053 12.8461H135.038L140.176 27.0615L145.207 12.8461H147.207Z"/><path fill="#F7F7F7" fill-rule="evenodd" d="M2.05987 17.1511L1.34002e-05 19.3321L0 19.3321L2.05988 21.5132L11.3137 31.3114L13.3736 29.1303L4.11974 19.3321L13.3736 9.53395L11.3137 7.35291L2.05987 17.1511Z" clip-rule="evenodd"/></svg>