<svg width="177" height="35" viewBox="0 0 177 35" fill="none" xmlns="http://www.w3.org/2000/svg">
<line x1="165.939" y1="2.34425" x2="154.939" y2="32.3443" stroke="#F7F7F7" stroke-width="2"/>
<path fill-rule="evenodd" clip-rule="evenodd" d="M174.314 19.8076L176.435 17.6863L176.435 17.6863L174.314 15.565L165.121 6.37256L163 8.49389L172.193 17.6863L163 26.8787L165.121 29L174.314 19.8076Z" fill="#F7F7F7"/>
<path d="M34.8154 28H31.6615L29.3538 15.8462L26.8462 28H23.7846L20.6615 11.8462H22.7692L25.1385 26.8308L27.9846 13.9077H30.7385L33.4462 26.8308L35.8 11.8462H37.8L34.8154 28ZM42.834 5.12308V14.2308C43.4596 13.3487 44.2545 12.6821 45.2186 12.2308C46.1827 11.7795 47.1468 11.5538 48.1109 11.5538C49.7314 11.5538 50.9006 11.9744 51.6186 12.8154C52.3365 13.6564 52.6955 14.8205 52.6955 16.3077V28H50.7878V15.9692C50.7878 15.0051 50.5263 14.2923 50.0032 13.8308C49.4801 13.3692 48.6852 13.1385 47.6186 13.1385C46.9211 13.1385 46.2596 13.2923 45.634 13.6C45.0083 13.9077 44.4545 14.2872 43.9724 14.7385C43.4904 15.1795 43.1109 15.6154 42.834 16.0462V28H40.9263V5.35385L42.834 5.12308ZM69.2756 11.8462L63.5064 28.1385C63.1577 29.1333 62.7269 30.0769 62.2141 30.9692C61.7012 31.8615 61.0192 32.6154 60.1679 33.2308C59.3166 33.8564 58.2089 34.2513 56.8448 34.4154L56.5064 32.7538C57.6346 32.5487 58.5166 32.241 59.1525 31.8308C59.7987 31.4205 60.3012 30.8974 60.6602 30.2615C61.0294 29.6256 61.3577 28.8718 61.6448 28H61.0141L55.2141 11.8462H57.2756L62.3679 26.3692L67.291 11.8462H69.2756ZM85.1403 11.8462L77.2788 19.1538L86.0942 28H83.3403L74.5865 19.1846L82.2942 11.8462H85.1403ZM74.2634 5.04615V28H72.3557V5.30769L74.2634 5.04615ZM87.1435 20.4923V18.7077H99.1743V20.4923H87.1435ZM112.27 5.04615L114.177 5.30769V28H112.516L112.27 25.7692C111.624 26.6923 110.901 27.3487 110.101 27.7385C109.311 28.1179 108.495 28.3077 107.654 28.3077C106.229 28.3077 105.054 27.959 104.131 27.2615C103.218 26.5538 102.542 25.5744 102.101 24.3231C101.66 23.0615 101.439 21.6103 101.439 19.9692C101.439 18.359 101.685 16.9231 102.177 15.6615C102.68 14.3897 103.398 13.3897 104.331 12.6615C105.275 11.9231 106.413 11.5538 107.747 11.5538C108.731 11.5538 109.593 11.7282 110.331 12.0769C111.07 12.4154 111.716 12.9179 112.27 13.5846V5.04615ZM108.224 13.2C106.726 13.2 105.577 13.7692 104.777 14.9077C103.988 16.0359 103.593 17.7179 103.593 19.9538C103.593 21.3692 103.752 22.5795 104.07 23.5846C104.398 24.5795 104.88 25.3385 105.516 25.8615C106.152 26.3846 106.947 26.6462 107.901 26.6462C108.926 26.6462 109.793 26.359 110.501 25.7846C111.218 25.2103 111.808 24.5795 112.27 23.8923V15.4923C111.798 14.7641 111.208 14.2 110.501 13.8C109.803 13.4 109.044 13.2 108.224 13.2ZM119.896 20.6923C119.927 22.0462 120.168 23.159 120.619 24.0308C121.081 24.8923 121.686 25.5282 122.434 25.9385C123.183 26.3487 123.999 26.5538 124.881 26.5538C125.732 26.5538 126.486 26.4308 127.142 26.1846C127.809 25.9385 128.506 25.5641 129.234 25.0615L130.234 26.4923C129.486 27.0667 128.64 27.5128 127.696 27.8308C126.763 28.1487 125.85 28.3077 124.958 28.3077C123.47 28.3077 122.193 27.959 121.127 27.2615C120.07 26.5641 119.26 25.5897 118.696 24.3385C118.132 23.0769 117.85 21.6103 117.85 19.9385C117.85 18.2974 118.137 16.8462 118.711 15.5846C119.286 14.3231 120.081 13.3385 121.096 12.6308C122.122 11.9128 123.311 11.5538 124.665 11.5538C125.978 11.5538 127.101 11.8718 128.034 12.5077C128.968 13.1436 129.681 14.0462 130.173 15.2154C130.676 16.3744 130.927 17.759 130.927 19.3692C130.927 19.6462 130.922 19.8974 130.911 20.1231C130.901 20.3385 130.891 20.5282 130.881 20.6923H119.896ZM124.711 13.3385C123.409 13.3385 122.311 13.8 121.419 14.7231C120.537 15.6462 120.04 17.0615 119.927 18.9692H129.111C129.07 17.0718 128.645 15.6615 127.834 14.7385C127.024 13.8051 125.983 13.3385 124.711 13.3385ZM147.207 11.8462L141.192 28H138.992L133.053 11.8462H135.038L140.176 26.0615L145.207 11.8462H147.207Z" fill="#F7F7F7"/>
<path fill-rule="evenodd" clip-rule="evenodd" d="M2.12132 15.1924L1.14441e-05 17.3137L0 17.3137L2.12133 19.435L11.3137 28.6274L13.435 26.5061L4.24264 17.3137L13.435 8.12132L11.3137 6L2.12132 15.1924Z" fill="#F7F7F7"/>
</svg>
